<svg width="32" height="32" viewBox="0 0 32 32" xmlns="http://www.w3.org/2000/svg">
  <defs>
    <linearGradient id="chefGradient" x1="0%" y1="0%" x2="100%" y2="100%">
      <stop offset="0%" style="stop-color:#E97441;stop-opacity:1" />
      <stop offset="100%" style="stop-color:#D44527;stop-opacity:1" />
    </linearGradient>
  </defs>
  
  <!-- Background Circle -->
  <circle cx="16" cy="16" r="16" fill="url(#chefGradient)" />
  
  <!-- Chef Hat Icon -->
  <g transform="translate(8, 6)">
    <!-- Hat Base -->
    <path d="M2 18 L14 18 C14.5 18 15 17.5 15 17 L15 16 C15 15.5 14.5 15 14 15 L2 15 C1.5 15 1 15.5 1 16 L1 17 C1 17.5 1.5 18 2 18 Z" fill="white" />
    
    <!-- Hat Top -->
    <path d="M8 4 C4 4 1 7 1 11 L1 14 C1 14.5 1.5 15 2 15 L14 15 C14.5 15 15 14.5 15 14 L15 11 C15 7 12 4 8 4 Z" fill="white" />
    
    <!-- Hat Details -->
    <circle cx="5" cy="10" r="1" fill="#E97441" opacity="0.3" />
    <circle cx="8" cy="8" r="1" fill="#E97441" opacity="0.3" />
    <circle cx="11" cy="10" r="1" fill="#E97441" opacity="0.3" />
  </g>
</svg>
